<svg xmlns="http://www.w3.org/2000/svg" width="1020" height="438" viewBox="0 0 1020 438"><title>nteract_logo_construction</title><rect x="10" y="10.03" width="1000" height="417.95" fill="#fff"/><path d="M1020,438H0V0H1020ZM20,417.95h980V20.05H20Z" fill="#fff"/><polygon points="296.23 341.2 217.51 295.64 217.51 146.51 296.23 192.08 296.23 341.2" fill="#fff" stroke="#5d779b" stroke-linecap="round" stroke-linejoin="round" stroke-width="2"/><polygon points="217.51 146.51 138.8 192.08 138.8 341.2 217.51 295.64 217.51 146.51" fill="#fff" stroke="#5d779b" stroke-linecap="round" stroke-linejoin="round" stroke-width="2"/><polygon points="217.51 96.8 95.87 167.22 117.34 179.65 217.51 121.65 317.69 179.65 317.69 328.78 339.16 316.35 339.16 167.22 217.51 96.8" fill="#fff" stroke="#5d779b" stroke-linecap="round" stroke-linejoin="round" stroke-width="2"/><polygon points="117.34 179.65 95.87 167.22 95.87 316.35 117.34 328.78 117.34 179.65" fill="#fff" stroke="#5d779b" stroke-linecap="round" stroke-linejoin="round" stroke-width="2"/><polygon points="117.34 179.65 117.34 328.78 138.8 341.2 138.8 192.08 117.34 179.65" fill="#fff" stroke="#5d779b" stroke-linecap="round" stroke-linejoin="round" stroke-width="2"/><polygon points="117.34 179.65 217.51 121.65 317.69 179.65 317.69 328.78 296.23 341.2 296.23 192.08 217.51 146.51 138.8 192.08 117.34 179.65" fill="#fff" stroke="#5d779b" stroke-linecap="round" stroke-linejoin="round" stroke-width="2"/><polygon points="217.52 179.64 267.6 208.64 267.6 266.64 217.51 295.64 167.43 266.64 167.43 208.64 217.52 179.64" fill="#fff" stroke="#5d779b" stroke-linecap="round" stroke-linejoin="round" stroke-width="2"/><polygon points="217.51 295.64 217.52 237.64 167.43 208.64 167.43 266.64 217.51 295.64" fill="#fff" stroke="#5d779b" stroke-linecap="round" stroke-linejoin="round" stroke-width="2"/><g opacity="0.35"><rect x="10" y="10.03" width="1000" height="417.95" fill="none" stroke="#5d779b" stroke-linecap="round" stroke-linejoin="round" stroke-width="2" stroke-dasharray="4 6"/></g><g opacity="0.35"><line x1="95.87" y1="179.64" x2="924.98" y2="179.64" fill="none" opacity="0.75" stroke-linecap="round" stroke-linejoin="round" stroke-width="2" stroke-dasharray="4 6" stroke="#5d779b"/><line x1="95.87" y1="208.5" x2="924.21" y2="208.5" fill="none" opacity="0.75" stroke-linecap="round" stroke-linejoin="round" stroke-width="2" stroke-dasharray="4 6" stroke="#5d779b"/><line x1="924.21" y1="295.6" x2="95.87" y2="295.6" fill="none" opacity="0.75" stroke-linecap="round" stroke-linejoin="round" stroke-width="2" stroke-dasharray="4 6" stroke="#5d779b"/></g><polyline points="95.87 96.8 95.87 341.2 924.21 341.2 924.21 96.8" fill="none" stroke="#5d779b" stroke-linecap="round" stroke-linejoin="round" stroke-width="2" stroke-dasharray="4 6" opacity="0.35"/><line x1="1007" y1="96.79" x2="10" y2="96.79" fill="none" opacity="0.35" stroke-linecap="round" stroke-linejoin="round" stroke-width="2" stroke-dasharray="4 6" stroke="#5d779b"/><g opacity="0.35"><line x1="95.87" y1="92.78" x2="95.87" y2="10.03" fill="none" stroke="#5d779b" stroke-linecap="round" stroke-linejoin="round" stroke-width="2" stroke-dasharray="4 6"/><line x1="138.8" y1="10.03" x2="138.8" y2="341.21" fill="none" stroke="#5d779b" stroke-linecap="round" stroke-linejoin="round" stroke-width="2" stroke-dasharray="4 6"/></g><g opacity="0.35"><line x1="339.16" y1="295.64" x2="339.16" y2="10.03" fill="none" stroke="#5d779b" stroke-linecap="round" stroke-linejoin="round" stroke-width="2" stroke-dasharray="4 6"/><line x1="382.1" y1="10.03" x2="382.1" y2="292.41" fill="none" stroke="#5d779b" stroke-linecap="round" stroke-linejoin="round" stroke-width="2" stroke-dasharray="4 6"/></g><g opacity="0.35"><line x1="52.94" y1="427.97" x2="52.94" y2="98.8" fill="none" stroke="#5d779b" stroke-linecap="round" stroke-linejoin="round" stroke-width="2" stroke-dasharray="4 6"/></g><g opacity="0.35"><line x1="925" y1="92.78" x2="925" y2="10.03" fill="none" stroke="#5d779b" stroke-linecap="round" stroke-linejoin="round" stroke-width="2" stroke-dasharray="4 6"/></g><polygon points="217.52 237.64 267.6 208.64 267.6 266.64 217.51 295.64 217.52 237.64" fill="#fff" stroke="#5d779b" stroke-linecap="round" stroke-linejoin="round" stroke-width="2"/><path d="M395.84,221.06a44.21,44.21,0,0,0-13.74,31.47v33.34c0,5.82,5.74,9.73,11.11,9.73s10.91-3.91,10.91-9.73V259.54c0-28.39,14.93-31.45,21.35-31.45,15.89,0,21.55,16.45,21.55,31.85v25.92c0,5.82,5.54,9.73,10.71,9.73,5.34,0,11.11-3.72,11.11-9.73V253.92c0-21.78-16.35-45.29-42.77-45.29A44.27,44.27,0,0,0,395.84,221.06Z" fill="#fff" stroke="#5d779b" stroke-linecap="round" stroke-linejoin="round" stroke-width="2"/><path d="M513.83,208.63H504.1v-19.3c0-6-6.47-9.73-11.11-9.73-5.27,0-10.91,3.91-10.91,9.73v77.05c0,13.7,5.93,23.94,16.26,28.08a11.82,11.82,0,0,0,5.47,1.14c4.1,0,7.46-1.67,9.24-4.58a8,8,0,0,0,1.67-4.95c0-3.22-1.82-7.25-5.19-8.37-5.43-1.59-5.43-9.31-5.43-13.93V228.09h9.73c4.64,0,11.11-3.7,11.11-9.74S518.47,208.63,513.83,208.63Z" fill="#fff" stroke="#5d779b" stroke-linecap="round" stroke-linejoin="round" stroke-width="2"/><path d="M616.71,233.41C612,223,603,215.12,591.21,211.2c-11.26-3.75-23.52-3.27-33.64,1.32a51.41,51.41,0,0,0-24.51,23.19c-4.07,8.12-7.41,21.13-.26,37a42,42,0,0,0,4.4,7.55h0a46.66,46.66,0,0,0,32.3,17c15.39,1.25,31.76-5.86,41.73-18.14a9.1,9.1,0,0,0,1.64-4.94,9.37,9.37,0,0,0-2.68-7.31,10.93,10.93,0,0,0-6.89-3.33c-4.92-.4-8.16,2.51-11.91,5.87-4.21,3.95-9.92,9.31-20.11,8.47a23.94,23.94,0,0,1-14.22-6l-1-.94,55.85-25.3a9.32,9.32,0,0,0,4.83-12.2ZM550,254.58l0-1.39c-.08-4.81,1.15-16.63,14.38-22.63,7.29-3.3,18.75-3.45,26.69,4l1,.94Z" fill="#fff" stroke="#5d779b" stroke-linecap="round" stroke-linejoin="round" stroke-width="2"/><path d="M679.91,208.22a49,49,0,0,0-30.48,10.84,43.91,43.91,0,0,0-16.29,34.25v32.55c0,5.82,5.74,9.73,11.11,9.73s10.91-3.91,10.91-9.73V259.14c0-7.24,0-12.47,2.5-17.49a26.76,26.76,0,0,1,8.7-10l0,0a26.08,26.08,0,0,1,13.51-4c5.25,0,10.91-3.72,10.91-9.73S685.16,208.22,679.91,208.22Z" fill="#fff" stroke="#5d779b" stroke-linecap="round" stroke-linejoin="round" stroke-width="2"/><path d="M791.8,278.88l-.39-.36c-2.23-1.79-5.41-4.73-5.41-7.42V265.6l.12-13.85c0-24.64-24.15-43-45.73-43a51.73,51.73,0,0,0-32.16,11.11c-7.11,5.77-15.58,16.35-15.58,33.94a41.93,41.93,0,0,0,13.82,31.17,48.35,48.35,0,0,0,62.18,2.24l.78-.62.54.84a23.88,23.88,0,0,0,9.53,8.28,18,18,0,0,0,6.51,1.75c4.69,0,10.9-3.38,10.9-9.72C796.93,283.66,794.55,281.44,791.8,278.88ZM739.18,278a24.9,24.9,0,0,1-24.73-25c0-10.3,7.67-24.8,24.73-24.8,9.56,0,24.73,6.73,24.73,24.8A24.9,24.9,0,0,1,739.18,278Z" fill="#fff" stroke="#5d779b" stroke-linecap="round" stroke-linejoin="round" stroke-width="2"/><path d="M878.25,270.28l0,0a12.84,12.84,0,0,0-7.65-2.81,10.78,10.78,0,0,0-7.61,3.18c-.49.49-1.29,1.15-2.15,1.84-.55.45-1.14.92-1.69,1.4l0,0a25.23,25.23,0,0,1-27.33.12,25.32,25.32,0,0,1-10.86-21.29A25.05,25.05,0,0,1,845.69,228a24.48,24.48,0,0,1,13.54,4.17l.15.12a15.93,15.93,0,0,0,3.21,2.34l.4.27a9.61,9.61,0,0,0,7.18,2.75,11.83,11.83,0,0,0,7.81-2.78,9.09,9.09,0,0,0,3.31-7c0-2.35-1.06-4.51-3.34-6.8a47.91,47.91,0,0,0-32.46-12.41,49.27,49.27,0,0,0-31.91,11.85,43,43,0,0,0-14.73,32.7c0,20.88,19.07,44.15,46.44,44.15a51.1,51.1,0,0,0,22.46-5.34,48,48,0,0,0,10.6-7.67c2.46-2.25,3.54-4.46,3.54-7.2A8.54,8.54,0,0,0,878.25,270.28Z" fill="#fff" stroke="#5d779b" stroke-linecap="round" stroke-linejoin="round" stroke-width="2"/><path d="M113.86,60.85a1.42,1.42,0,0,1-.5.48,1.11,1.11,0,0,1-.56.14,1.17,1.17,0,0,1-.43-.08,1.21,1.21,0,0,1-.37-.23,1.11,1.11,0,0,1-.25-.34.92.92,0,0,1-.09-.41,1.07,1.07,0,0,1,.22-.63l4.05-5.56-3.78-5.14a1,1,0,0,1-.21-.58.92.92,0,0,1,.11-.43,1.13,1.13,0,0,1,.29-.36,1.59,1.59,0,0,1,.42-.24,1.3,1.3,0,0,1,1.09.06,1.4,1.4,0,0,1,.52.49l3.24,4.73L120.94,48a1.39,1.39,0,0,1,.51-.49,1.22,1.22,0,0,1,.57-.15,1.13,1.13,0,0,1,.43.08,1.28,1.28,0,0,1,.37.23,1.07,1.07,0,0,1,.25.33.89.89,0,0,1,.09.4.92.92,0,0,1-.05.3,1.16,1.16,0,0,1-.17.31l-3.86,5.18,4,5.5a1,1,0,0,1,.21.59.9.9,0,0,1-.11.44,1.26,1.26,0,0,1-.3.36,1.5,1.5,0,0,1-.42.25,1.32,1.32,0,0,1-.48.09,1.24,1.24,0,0,1-.57-.14,1.31,1.31,0,0,1-.49-.47l-3.49-5.07Z" fill="#c8d4e6"/><line x1="126.57" y1="54.01" x2="131.57" y2="54.01" fill="none" stroke="#c8d4e6" stroke-linecap="round" stroke-linejoin="round" stroke-width="2"/><polygon points="130.7 57 135.88 54.01 130.7 51.02 130.7 57" fill="#c8d4e6"/><line x1="108.81" y1="54.01" x2="104" y2="54.01" fill="none" stroke="#c8d4e6" stroke-linecap="round" stroke-linejoin="round" stroke-width="2"/><polygon points="104.88 51.02 99.69 54.01 104.88 57 104.88 51.02" fill="#c8d4e6"/><path d="M357.21,60.85a1.42,1.42,0,0,1-.5.48,1.11,1.11,0,0,1-.56.14,1.17,1.17,0,0,1-.43-.08,1.21,1.21,0,0,1-.37-.23,1.11,1.11,0,0,1-.25-.34.92.92,0,0,1-.09-.41,1.07,1.07,0,0,1,.22-.63l4.05-5.56-3.78-5.14a1,1,0,0,1-.21-.58.92.92,0,0,1,.11-.43,1.13,1.13,0,0,1,.29-.36,1.59,1.59,0,0,1,.42-.24,1.3,1.3,0,0,1,1.09.06,1.4,1.4,0,0,1,.52.49L361,52.75,364.29,48a1.39,1.39,0,0,1,.51-.49,1.22,1.22,0,0,1,.57-.15,1.13,1.13,0,0,1,.43.08,1.28,1.28,0,0,1,.37.23,1.07,1.07,0,0,1,.25.33.89.89,0,0,1,.09.4.92.92,0,0,1-.05.3,1.16,1.16,0,0,1-.17.31l-3.86,5.18,4,5.5a1,1,0,0,1,.21.59.9.9,0,0,1-.11.44,1.26,1.26,0,0,1-.3.36,1.5,1.5,0,0,1-.42.25,1.32,1.32,0,0,1-.48.09,1.24,1.24,0,0,1-.57-.14,1.31,1.31,0,0,1-.49-.47l-3.49-5.07Z" fill="#c8d4e6"/><line x1="369.93" y1="54.01" x2="374.93" y2="54.01" fill="none" stroke="#c8d4e6" stroke-linecap="round" stroke-linejoin="round" stroke-width="2"/><polygon points="374.05 57 379.23 54.01 374.05 51.02 374.05 57" fill="#c8d4e6"/><line x1="352.16" y1="54.01" x2="347.36" y2="54.01" fill="none" stroke="#c8d4e6" stroke-linecap="round" stroke-linejoin="round" stroke-width="2"/><polygon points="348.23 51.02 343.05 54.01 348.23 57 348.23 51.02" fill="#c8d4e6"/><path d="M44.76,49.69a3.87,3.87,0,0,0-.72.07,6.46,6.46,0,0,0-.71.18,7.11,7.11,0,0,0-.67.24l-.59.26a1,1,0,0,1-.26.09l-.23,0a.83.83,0,0,1-.64-.27.9.9,0,0,1-.24-.62,1,1,0,0,1,.16-.51,1.31,1.31,0,0,1,.53-.46,8.37,8.37,0,0,1,.85-.39,9.48,9.48,0,0,1,.95-.31,9.24,9.24,0,0,1,1-.21,5.91,5.91,0,0,1,.94-.08,6.52,6.52,0,0,1,1.77.23,4.26,4.26,0,0,1,1.42.68,3.25,3.25,0,0,1,.94,1.1,3.19,3.19,0,0,1,.34,1.5,4.21,4.21,0,0,1-.28,1.47,8.22,8.22,0,0,1-.77,1.52,13.56,13.56,0,0,1-1.13,1.52q-.64.76-1.36,1.47t-1.47,1.36q-.75.65-1.46,1.21h5.65a1,1,0,0,1,.41.08.87.87,0,0,1,.29.22.93.93,0,0,1,.18.31,1.14,1.14,0,0,1,.06.36,1.11,1.11,0,0,1-.06.35.87.87,0,0,1-.18.31.9.9,0,0,1-.29.22,1,1,0,0,1-.41.08H41.4a1.38,1.38,0,0,1-1-.34,1.11,1.11,0,0,1-.33-.81,1.54,1.54,0,0,1,.18-.7,2.39,2.39,0,0,1,.52-.67l.31-.27.45-.4.53-.48.56-.5.53-.5.44-.44q.71-.69,1.34-1.39A14.8,14.8,0,0,0,46,53.85a7.88,7.88,0,0,0,.74-1.28,2.74,2.74,0,0,0,.27-1.1,1.53,1.53,0,0,0-.19-.77,1.71,1.71,0,0,0-.5-.55,2.3,2.3,0,0,0-.72-.33A3.23,3.23,0,0,0,44.76,49.69Z" fill="#c8d4e6"/><path d="M55.09,61.12a1.42,1.42,0,0,1-.5.48,1.11,1.11,0,0,1-.56.14,1.17,1.17,0,0,1-.43-.08,1.21,1.21,0,0,1-.37-.23,1.11,1.11,0,0,1-.25-.34.92.92,0,0,1-.09-.41A1.07,1.07,0,0,1,53.1,60l4.05-5.56-3.78-5.14a1,1,0,0,1-.21-.58.92.92,0,0,1,.11-.43,1.13,1.13,0,0,1,.29-.36,1.59,1.59,0,0,1,.42-.24,1.3,1.3,0,0,1,1.09.06,1.4,1.4,0,0,1,.52.49L58.84,53l3.33-4.73a1.39,1.39,0,0,1,.51-.49,1.22,1.22,0,0,1,.57-.15,1.13,1.13,0,0,1,.43.08A1.28,1.28,0,0,1,64,48a1.07,1.07,0,0,1,.25.33.89.89,0,0,1,.09.4.92.92,0,0,1-.05.3,1.16,1.16,0,0,1-.17.31l-3.86,5.18,4,5.5a1,1,0,0,1,.21.59.9.9,0,0,1-.11.44,1.26,1.26,0,0,1-.3.36,1.5,1.5,0,0,1-.42.25,1.32,1.32,0,0,1-.48.09,1.24,1.24,0,0,1-.57-.14,1.31,1.31,0,0,1-.49-.47L58.63,56Z" fill="#c8d4e6"/><line x1="66.94" y1="54.08" x2="86.94" y2="54.08" fill="none" stroke="#c8d4e6" stroke-linecap="round" stroke-linejoin="round" stroke-width="2"/><polygon points="86.06 57.07 91.24 54.08 86.06 51.09 86.06 57.07" fill="#c8d4e6"/><line x1="38.94" y1="54.08" x2="18.94" y2="54.08" fill="none" stroke="#c8d4e6" stroke-linecap="round" stroke-linejoin="round" stroke-width="2"/><polygon points="19.81 51.09 14.63 54.08 19.81 57.07 19.81 51.09" fill="#c8d4e6"/><line x1="52.94" y1="40.04" x2="52.94" y2="19.99" fill="none" stroke="#c8d4e6" stroke-linecap="round" stroke-linejoin="round" stroke-width="2"/><polygon points="55.93 20.86 52.94 15.68 49.94 20.86 55.93 20.86" fill="#c8d4e6"/><line x1="52.94" y1="68.12" x2="52.94" y2="88.17" fill="none" stroke="#c8d4e6" stroke-linecap="round" stroke-linejoin="round" stroke-width="2"/><polygon points="49.94 87.3 52.94 92.48 55.93 87.3 49.94 87.3" fill="#c8d4e6"/><path d="M923.33,208.5H913.6v-19.3c0-6-6.47-9.73-11.11-9.73-5.27,0-10.91,3.91-10.91,9.73v77.05c0,13.7,5.93,23.94,16.26,28.08a11.82,11.82,0,0,0,5.47,1.14c4.1,0,7.46-1.67,9.24-4.58a8,8,0,0,0,1.67-4.95c0-3.22-1.82-7.25-5.19-8.37-5.43-1.59-5.43-9.31-5.43-13.93V228h9.73c4.64,0,11.11-3.7,11.11-9.74S928,208.5,923.33,208.5Z" fill="#fff" stroke="#5d779b" stroke-linecap="round" stroke-linejoin="round" stroke-width="2"/></svg>